<?xml version="1.0" standalone="no"?>
<!DOCTYPE svg PUBLIC "-//W3C//DTD SVG 20010904//EN"
 "http://www.w3.org/TR/2001/REC-SVG-20010904/DTD/svg10.dtd">
<svg version="1.0" xmlns="http://www.w3.org/2000/svg"
 width="1005.000000pt" height="1280.000000pt" viewBox="0 0 1005.000000 1280.000000"
 preserveAspectRatio="xMidYMid meet">
<metadata>
Created by potrace 1.15, written by Peter Selinger 2001-2017
</metadata>
<g transform="translate(0.000000,1280.000000) scale(0.100000,-0.100000)"
fill="#000000" stroke="none">
<path d="M8384 12785 c-183 -28 -337 -76 -498 -156 -487 -243 -834 -698 -948
-1244 -19 -94 -23 -141 -23 -315 0 -231 11 -308 72 -499 139 -438 477 -783
906 -926 181 -60 249 -70 472 -70 168 1 216 5 302 23 633 137 1131 605 1314
1235 135 465 65 955 -193 1342 -68 102 -219 259 -327 340 -156 118 -368 213
-569 255 -128 27 -381 35 -508 15z"/>
<path d="M3475 12582 c-179 -61 -344 -217 -431 -405 -58 -129 -87 -332 -73
-517 9 -126 19 -178 54 -290 79 -250 208 -407 420 -510 286 -140 550 -91 769
140 163 174 236 397 223 690 -14 331 -137 611 -332 757 -202 151 -436 201
-630 135z"/>
<path d="M5498 12590 c-135 -16 -245 -71 -359 -178 -194 -182 -325 -476 -345
-773 -25 -359 173 -673 506 -804 171 -67 402 -72 544 -13 315 131 557 557 556
977 -1 215 -64 385 -202 535 -128 141 -307 231 -508 256 -92 11 -94 11 -192 0z"/>
<path d="M1855 11864 c-152 -32 -213 -54 -305 -111 -124 -79 -236 -220 -281
-354 -21 -64 -24 -92 -23 -199 1 -103 6 -140 27 -210 85 -283 272 -523 492
-633 81 -40 178 -60 295 -60 130 0 214 20 339 80 79 38 109 59 177 127 68 68
90 99 127 177 56 116 71 190 64 312 -19 331 -262 698 -542 822 -97 43 -279 67
-370 49z"/>
<path d="M403 10645 c-85 -23 -173 -73 -233 -134 -67 -66 -103 -125 -138 -224
-22 -63 -25 -89 -26 -202 0 -150 13 -212 75 -343 216 -463 759 -632 1060 -330
112 111 178 299 165 469 -28 360 -282 675 -613 760 -90 22 -214 24 -290 4z"/>
<path d="M4145 10519 c-613 -48 -1130 -199 -1745 -509 -892 -452 -1378 -1001
-1670 -1890 -96 -293 -210 -836 -265 -1256 -69 -533 -23 -1417 116 -2249 230
-1379 656 -2587 1198 -3400 364 -545 784 -906 1228 -1053 306 -102 793 -171
1123 -159 472 18 831 149 1068 389 89 91 132 148 182 241 134 249 157 545 65
861 -76 262 -231 582 -523 1081 -470 802 -613 1087 -686 1369 -63 241 -60 537
8 797 99 380 352 700 738 936 330 201 774 345 1248 404 268 33 425 75 592 159
122 61 211 124 315 224 261 249 411 571 468 1000 19 142 19 467 1 618 -90 724
-424 1376 -916 1791 -343 289 -870 503 -1486 602 -285 46 -775 66 -1059 44z"/>
</g>
</svg>
