<svg width="16" height="16" viewBox="0 0 16 16" fill="none" xmlns="http://www.w3.org/2000/svg">
<g id="copyright sign,sign,symbol,copyright, / 24 / Outline">
<path id="Vector" d="M7.33335 5.99967H8.66668C8.84349 5.99967 9.01306 6.06991 9.13808 6.19494C9.26311 6.31996 9.33335 6.48953 9.33335 6.66634C9.33335 6.84315 9.40358 7.01272 9.52861 7.13775C9.65363 7.26277 9.8232 7.33301 10 7.33301C10.1768 7.33301 10.3464 7.26277 10.4714 7.13775C10.5964 7.01272 10.6667 6.84315 10.6667 6.66634C10.6667 6.13591 10.456 5.6272 10.0809 5.25213C9.70582 4.87705 9.19711 4.66634 8.66668 4.66634H7.33335C6.80291 4.66634 6.29421 4.87705 5.91913 5.25213C5.54406 5.6272 5.33335 6.13591 5.33335 6.66634V9.33301C5.33335 9.86344 5.54406 10.3721 5.91913 10.7472C6.29421 11.1223 6.80291 11.333 7.33335 11.333H8.66668C9.19711 11.333 9.70582 11.1223 10.0809 10.7472C10.456 10.3721 10.6667 9.86344 10.6667 9.33301C10.6667 9.1562 10.5964 8.98663 10.4714 8.8616C10.3464 8.73658 10.1768 8.66634 10 8.66634C9.8232 8.66634 9.65363 8.73658 9.52861 8.8616C9.40358 8.98663 9.33335 9.1562 9.33335 9.33301C9.33335 9.50982 9.26311 9.67939 9.13808 9.80441C9.01306 9.92944 8.84349 9.99967 8.66668 9.99967H7.33335C7.15654 9.99967 6.98697 9.92944 6.86194 9.80441C6.73692 9.67939 6.66668 9.50982 6.66668 9.33301V6.66634C6.66668 6.48953 6.73692 6.31996 6.86194 6.19494C6.98697 6.06991 7.15654 5.99967 7.33335 5.99967ZM8.00001 1.33301C6.68147 1.33301 5.39254 1.724 4.29621 2.45654C3.19988 3.18909 2.3454 4.23028 1.84082 5.44845C1.33623 6.66663 1.20421 8.00707 1.46144 9.30028C1.71868 10.5935 2.35362 11.7814 3.28597 12.7137C4.21832 13.6461 5.4062 14.281 6.69941 14.5382C7.99262 14.7955 9.33306 14.6635 10.5512 14.1589C11.7694 13.6543 12.8106 12.7998 13.5431 11.7035C14.2757 10.6071 14.6667 9.31822 14.6667 7.99967C14.6667 7.1242 14.4942 6.25729 14.1592 5.44845C13.8242 4.63961 13.3331 3.90469 12.7141 3.28563C12.095 2.66657 11.3601 2.17551 10.5512 1.84048C9.7424 1.50545 8.87549 1.33301 8.00001 1.33301ZM8.00001 13.333C6.94518 13.333 5.91403 13.0202 5.03697 12.4342C4.15991 11.8481 3.47632 11.0152 3.07266 10.0407C2.66899 9.06611 2.56337 7.99376 2.76916 6.95919C2.97495 5.92463 3.4829 4.97432 4.22878 4.22844C4.97466 3.48256 5.92497 2.97461 6.95953 2.76882C7.9941 2.56303 9.06645 2.66865 10.041 3.07232C11.0155 3.47598 11.8485 4.15957 12.4345 5.03663C13.0206 5.91369 13.3333 6.94484 13.3333 7.99967C13.3333 9.41416 12.7714 10.7707 11.7712 11.7709C10.7711 12.7711 9.4145 13.333 8.00001 13.333Z" fill="white"/>
</g>
</svg>
