<svg width="16" height="16" viewBox="0 0 16 16" fill="none" xmlns="http://www.w3.org/2000/svg">
<path d="M9.92668 6.98699L7.92668 5.82699C7.74899 5.72201 7.54639 5.66663 7.34001 5.66663C7.13363 5.66663 6.93103 5.72201 6.75334 5.82699C6.5743 5.92792 6.42587 6.07539 6.32377 6.25377C6.22167 6.43215 6.16969 6.63482 6.17334 6.84033V9.16033C6.16969 9.36583 6.22167 9.5685 6.32377 9.74688C6.42587 9.92526 6.5743 10.0727 6.75334 10.1737C6.93103 10.2786 7.13363 10.334 7.34001 10.334C7.54639 10.334 7.74899 10.2786 7.92668 10.1737L9.92668 9.01366C10.0977 8.90872 10.2389 8.76169 10.3368 8.58661C10.4348 8.41154 10.4862 8.21428 10.4862 8.01366C10.4862 7.81304 10.4348 7.61578 10.3368 7.4407C10.2389 7.26563 10.0977 7.1186 9.92668 7.01366V6.98699ZM7.49334 8.88033V7.12033L9.01334 8.00033L7.49334 8.88033ZM12.6667 2.66699H3.33334C2.80291 2.66699 2.2942 2.87771 1.91913 3.25278C1.54406 3.62785 1.33334 4.13656 1.33334 4.66699V11.3337C1.33334 11.8641 1.54406 12.3728 1.91913 12.7479C2.2942 13.1229 2.80291 13.3337 3.33334 13.3337H12.6667C13.1971 13.3337 13.7058 13.1229 14.0809 12.7479C14.456 12.3728 14.6667 11.8641 14.6667 11.3337V4.66699C14.6667 4.13656 14.456 3.62785 14.0809 3.25278C13.7058 2.87771 13.1971 2.66699 12.6667 2.66699ZM13.3333 11.3337C13.3333 11.5105 13.2631 11.68 13.1381 11.8051C13.0131 11.9301 12.8435 12.0003 12.6667 12.0003H3.33334C3.15653 12.0003 2.98696 11.9301 2.86194 11.8051C2.73691 11.68 2.66668 11.5105 2.66668 11.3337V4.66699C2.66668 4.49018 2.73691 4.32061 2.86194 4.19559C2.98696 4.07056 3.15653 4.00033 3.33334 4.00033H12.6667C12.8435 4.00033 13.0131 4.07056 13.1381 4.19559C13.2631 4.32061 13.3333 4.49018 13.3333 4.66699V11.3337Z" fill="white"/>
</svg>
